<?xml version="1.0" encoding="utf-8"?>
<!-- Generator: Adobe Illustrator 19.2.1, SVG Export Plug-In . SVG Version: 6.00 Build 0)  -->
<svg version="1.1" id="layer" xmlns="http://www.w3.org/2000/svg" xmlns:xlink="http://www.w3.org/1999/xlink" x="0px" y="0px"
	 viewBox="0 0 652 652" style="enable-background:new 0 0 652 652;" xml:space="preserve">
<style type="text/css">
	.st0{fill:#2A457A;}
</style>
<g>
	<path class="st0" d="M146.5,277.9h-8.1V290h8.1c3.9,0,6.4-2.4,6.4-6C152.9,280.4,150.4,277.9,146.5,277.9L146.5,277.9z M147,297.8
		h-8.5v16.6h-8.6v-44.2H147c9.1,0,14.6,6.3,14.6,13.8C161.6,291.5,156.1,297.8,147,297.8L147,297.8z M182.1,291.8
		c-0.9-1.9-2.7-3.4-5.4-3.4c-2.7,0-4.5,1.4-5.4,3.4c-0.5,1.2-0.7,2-0.7,3.5h12.3C182.7,293.8,182.6,293,182.1,291.8z M170.5,300.8
		c0,4.2,2.5,7.2,7.1,7.2c3.5,0,5.3-1,7.3-3l4.9,4.8c-3.3,3.3-6.5,5.1-12.3,5.1c-7.6,0-15-3.5-15-16.6c0-10.6,5.7-16.5,14.1-16.5
		c9,0,14.1,6.6,14.1,15.5v3.6C190.8,300.8,170.5,300.8,170.5,300.8z M204.8,314.4c-6.6,0-9.4-4.7-9.4-9.3v-35h8.1v34.5
		c0,1.9,0.8,2.9,2.9,2.9h3.1v6.8C209.4,314.4,204.8,314.4,204.8,314.4z M251.7,314.4v-19.6c0-4.4-2.8-5.9-5.3-5.9
		c-2.5,0-5.4,1.5-5.4,5.7v19.7h-8.1v-19.6c0-4.4-2.8-5.9-5.3-5.9s-5.4,1.5-5.4,5.9v19.6H214v-32.4h7.9v3c2.1-2.2,5.1-3.4,8.1-3.4
		c3.6,0,6.5,1.3,8.6,4.1c2.7-2.9,5.7-4.1,9.7-4.1c3.2,0,6.1,1.1,7.9,2.9c2.6,2.6,3.5,5.7,3.5,9.2v20.7H251.7L251.7,314.4z
		 M282,290.4c-0.9-0.9-2.2-1.4-3.8-1.4c-1.6,0-2.8,0.5-3.7,1.4c-1.7,1.7-1.9,4.5-1.9,7.8c0,3.4,0.2,6.2,1.9,7.9
		c0.9,0.9,2.1,1.4,3.7,1.4c1.6,0,2.9-0.5,3.8-1.4c1.7-1.7,1.9-4.5,1.9-7.9S283.7,292.1,282,290.4 M288.3,310.8c-2,2.1-5.3,4-10.1,4
		c-4.8,0-8-1.9-10-4c-2.9-3-3.7-6.7-3.7-12.6c0-5.8,0.7-9.5,3.7-12.5c2-2.1,5.2-4,10-4c4.8,0,8.1,1.9,10.1,4c2.9,3,3.7,6.7,3.7,12.5
		C292,304.1,291.2,307.8,288.3,310.8 M314.8,290.9c-1.2-1.2-2.3-1.9-4.3-1.9c-2.5,0-5.2,1.9-5.2,6v19.5h-8.1v-32.4h7.9v3.1
		c1.6-1.9,4.7-3.5,8.1-3.5c3.2,0,5.4,0.8,7.6,3L314.8,290.9L314.8,290.9z M339.6,291.8c-0.9-1.9-2.7-3.4-5.4-3.4s-4.5,1.4-5.4,3.4
		c-0.5,1.2-0.7,2-0.7,3.5h12.3C340.3,293.8,340.1,293,339.6,291.8z M328,300.8c0,4.2,2.5,7.2,7.1,7.2c3.5,0,5.3-1,7.3-3l4.9,4.8
		c-3.3,3.3-6.5,5.1-12.3,5.1c-7.6,0-15-3.5-15-16.6c0-10.6,5.7-16.5,14.1-16.5c9,0,14.1,6.6,14.1,15.5v3.6H328L328,300.8z
		 M371,314.4l-6-9.7l-5.9,9.7h-9.7l11.2-16.5l-10.7-15.8h9.7l5.5,9.3l5.5-9.3h9.7l-10.7,15.8l11.2,16.5H371z M69.9,270.2H26.1v19.5
		h31.5c3-1.5,6.4-2.2,9.8-2.2c5.1,0,9.8,1.7,13.5,4.6H57.4l-2.8-0.6H26.1v5.9h22.2l2.6-0.8h34.4c0.7,1,1.4,2.1,2,3.2H48.9l-1.7-0.7
		H26.1v5.9h19l2.2-0.8h41.7c0.3,1.1,0.5,2.1,0.6,3.2H46.7l-1.9-0.7H26.1v5.9h18.7l1.9-0.7h42.8c-0.1,1.1-0.3,2.2-0.6,3.2H47.3
		l-2.2-0.8h-19v5.9h21.2l1.7-0.7h38.3c-0.6,1.1-1.2,2.2-2,3.2H50.9l-2.6-0.8H26.1v5.9h28.5l2.8-0.6h23.5c-3.9,3-8.6,4.6-13.5,4.6
		c-3.4,0-6.7-0.8-9.7-2.2H26.1v39.5h30.1v-20.1h13.7c21.8,0,39.5-17.7,39.5-39.5C109.4,287.9,91.7,270.2,69.9,270.2 M139.3,369.4
		c-5.3,0-9.4-1.1-12.8-4.6l4.4-4.4c2.2,2.2,5.2,3,8.4,3c4.1,0,6.3-1.6,6.3-4.4c0-1.2-0.3-2.2-1.1-2.9c-0.7-0.6-1.4-0.9-3.2-1.2
		l-4.2-0.6c-3.1-0.4-5.2-1.4-6.8-2.9c-1.7-1.6-2.5-3.9-2.5-6.9c0-6.3,4.6-10.6,12.2-10.6c4.8,0,8.3,1.2,11.3,4.1l-4.3,4.3
		c-2.2-2.1-4.9-2.4-7.2-2.4c-3.6,0-5.4,2-5.4,4.4c0,0.9,0.2,1.8,1,2.5c0.7,0.6,1.7,1.1,3.2,1.3l4.2,0.6c3.2,0.4,5.2,1.3,6.7,2.8
		c1.9,1.7,2.7,4.2,2.7,7.4C152.3,365.6,146.7,369.4,139.3,369.4 M170,351.2c-0.7-1.5-2.1-2.7-4.3-2.7c-2.2,0-3.6,1.1-4.3,2.7
		c-0.4,0.9-0.5,1.6-0.6,2.8h9.7C170.6,352.8,170.5,352.1,170,351.2L170,351.2z M160.9,358.3c0,3.3,2,5.7,5.6,5.7
		c2.8,0,4.2-0.8,5.8-2.4l3.9,3.8c-2.6,2.7-5.1,4-9.7,4c-6.1,0-11.9-2.8-11.9-13.1c0-8.4,4.5-13.1,11.2-13.1
		c7.1,0,11.2,5.1,11.2,12.4v2.7L160.9,358.3L160.9,358.3z M194.3,350.5c-1-1-1.8-1.5-3.4-1.5c-2,0-4.1,1.5-4.1,4.7v15.5h-6.4v-25.6
		h6.3v2.5c1.2-1.5,3.7-2.8,6.4-2.8c2.5,0,4.3,0.6,6.1,2.4L194.3,350.5L194.3,350.5z"/>
	<path class="st0" d="M211.4,369.2h-5l-9.5-25.6h6.7l5.2,15.8l5.2-15.8h6.7L211.4,369.2z M222.1,369.2h6.4v-24.9h-6.4V369.2z
		 M222,339.1h6.5v-5.2H222V339.1L222,339.1z M243.3,369.4c-5.1,0-11.5-2.8-11.5-13.1c0-10.4,6.3-13.1,11.5-13.1
		c3.5,0,6.2,1.1,8.5,3.4l-4.3,4.3c-1.3-1.4-2.5-2-4.1-2c-1.5,0-2.7,0.5-3.6,1.7c-1,1.2-1.4,3-1.4,5.7c0,2.7,0.4,4.5,1.4,5.7
		c0.9,1.1,2.1,1.7,3.6,1.7c1.7,0,2.8-0.6,4.1-2l4.3,4.3C249.5,368.3,246.9,369.4,243.3,369.4 M254.3,369.2h6.4v-24.9h-6.4
		L254.3,369.2L254.3,369.2z M254.2,339.1h6.5v-5.2h-6.5L254.2,339.1L254.2,339.1z M278.1,350.1c-0.7-0.7-1.7-1.1-3-1.1
		c-1.2,0-2.2,0.4-3,1.1c-1.3,1.3-1.5,3.6-1.5,6.2c0,2.7,0.1,5,1.5,6.3c0.7,0.7,1.7,1.1,3,1.1c1.3,0,2.3-0.4,3-1.1
		c1.3-1.3,1.5-3.6,1.5-6.3C279.6,353.7,279.5,351.4,278.1,350.1 M283.1,366.3c-1.6,1.7-4.2,3.2-8,3.2c-3.8,0-6.3-1.5-7.9-3.2
		c-2.3-2.5-2.9-5.4-2.9-10c0-4.6,0.6-7.5,2.9-9.9c1.6-1.7,4.1-3.2,7.9-3.2c3.8,0,6.4,1.4,8,3.2c2.3,2.5,2.9,5.3,2.9,9.9
		C286,360.9,285.5,363.9,283.1,366.3 M298.1,369.4c-4,0-7.6-0.4-10.9-3.7l4.2-4.2c2.1,2.1,4.9,2.4,6.8,2.4c2.2,0,4.5-0.7,4.5-2.7
		c0-1.3-0.6-2.2-2.7-2.4l-4.1-0.4c-4.5-0.4-7.4-2.5-7.4-7.2c0-5.4,4.7-8.2,9.9-8.2c4,0,7.3,0.7,9.8,3l-3.9,4c-1.5-1.3-3.7-1.7-6-1.7
		c-2.6,0-3.6,1.2-3.6,2.5s0.7,2,2.7,2.2l4,0.4c5.1,0.5,7.6,3.2,7.6,7.5C309,366.7,304.1,369.4,298.1,369.4 M346.2,369.2v-20.4
		l-6.7,13.3h-4.6l-6.7-13.3v20.4h-6.8v-35h6.7l9.2,19l9.1-19h6.7v35H346.2z M372.4,351.2c-0.7-1.5-2.1-2.7-4.3-2.7
		c-2.2,0-3.6,1.1-4.3,2.7c-0.4,0.9-0.5,1.6-0.6,2.8h9.7C373,352.8,372.9,352.1,372.4,351.2L372.4,351.2z M363.3,358.3
		c0,3.3,2,5.7,5.6,5.7c2.8,0,4.2-0.8,5.8-2.4l3.9,3.8c-2.6,2.7-5.1,4-9.7,4c-6.1,0-11.9-2.8-11.9-13.1c0-8.4,4.5-13.1,11.2-13.1
		c7.1,0,11.2,5.1,11.2,12.4v2.7L363.3,358.3L363.3,358.3z M390.8,369.2c-5.2,0-7.4-3.7-7.4-7.3v-12.7h-2.7v-4.9h2.7v-7.6h6.4v7.6
		h4.5v4.9h-4.5v12.3c0,1.5,0.7,2.3,2.2,2.3h2.3v5.4C394.3,369.2,390.8,369.2,390.8,369.2z M411.6,351.2c-0.7-1.5-2.1-2.7-4.3-2.7
		s-3.6,1.1-4.3,2.7c-0.4,0.9-0.5,1.6-0.6,2.8h9.7C412.1,352.8,412,352.1,411.6,351.2L411.6,351.2z M402.4,358.3c0,3.3,2,5.7,5.6,5.7
		c2.8,0,4.2-0.8,5.8-2.4l3.9,3.8c-2.6,2.7-5.1,4-9.7,4c-6.1,0-11.9-2.8-11.9-13.1c0-8.4,4.5-13.1,11.2-13.1
		c7.1,0,11.2,5.1,11.2,12.4v2.7L402.4,358.3L402.4,358.3z M434.7,350.1c-0.7-0.7-1.7-1.1-3-1.1c-1.2,0-2.2,0.4-3,1.1
		c-1.3,1.3-1.5,3.6-1.5,6.2c0,2.7,0.1,5,1.5,6.3c0.7,0.7,1.7,1.1,3,1.1c1.3,0,2.3-0.4,3-1.1c1.3-1.3,1.5-3.6,1.5-6.3
		C436.1,353.7,436,351.4,434.7,350.1 M439.6,366.3c-1.6,1.7-4.2,3.2-8,3.2c-3.8,0-6.3-1.5-7.9-3.2c-2.3-2.5-2.9-5.4-2.9-10
		c0-4.6,0.6-7.5,2.9-9.9c1.6-1.7,4.1-3.2,7.9-3.2c3.8,0,6.3,1.4,8,3.2c2.3,2.5,2.9,5.3,2.9,9.9C442.5,360.9,442,363.9,439.6,366.3
		 M460.1,350.5c-1-1-1.8-1.5-3.4-1.5c-2,0-4.1,1.5-4.1,4.7v15.5h-6.4v-25.6h6.3v2.5c1.2-1.5,3.7-2.8,6.5-2.8c2.5,0,4.3,0.6,6.1,2.4
		L460.1,350.5L460.1,350.5z M477.4,350.1c-0.7-0.7-1.7-1.1-3-1.1c-1.2,0-2.2,0.4-3,1.1c-1.3,1.3-1.5,3.6-1.5,6.2
		c0,2.7,0.1,5,1.5,6.3c0.7,0.7,1.7,1.1,3,1.1c1.3,0,2.3-0.4,3-1.1c1.3-1.3,1.5-3.6,1.5-6.3C478.8,353.7,478.7,351.4,477.4,350.1
		 M482.3,366.3c-1.6,1.7-4.2,3.2-8,3.2c-3.8,0-6.3-1.5-7.9-3.2c-2.3-2.5-2.9-5.4-2.9-10c0-4.6,0.6-7.5,2.9-9.9
		c1.6-1.7,4.1-3.2,7.9-3.2c3.8,0,6.3,1.4,8,3.2c2.3,2.5,2.9,5.3,2.9,9.9C485.2,360.9,484.7,363.9,482.3,366.3 M496.1,369.2
		c-5.3,0-7.5-3.7-7.5-7.3v-27.7h6.4v27.3c0,1.5,0.6,2.3,2.3,2.3h2.5v5.4H496.1L496.1,369.2z M513.3,339.4H509l3.2-8.4h6.7
		L513.3,339.4z M514.7,350.1c-0.7-0.7-1.7-1.1-3-1.1c-1.2,0-2.2,0.4-3,1.1c-1.3,1.3-1.5,3.6-1.5,6.2c0,2.7,0.1,5,1.5,6.3
		c0.7,0.7,1.7,1.1,3,1.1c1.3,0,2.3-0.4,3-1.1c1.3-1.3,1.5-3.6,1.5-6.3C516.2,353.7,516,351.4,514.7,350.1z M519.7,366.3
		c-1.6,1.7-4.2,3.2-8,3.2c-3.8,0-6.3-1.5-7.9-3.2c-2.3-2.5-2.9-5.4-2.9-10c0-4.6,0.6-7.5,2.9-9.9c1.6-1.7,4.1-3.2,7.9-3.2
		s6.4,1.4,8,3.2c2.3,2.5,2.9,5.3,2.9,9.9C522.6,360.9,522,363.9,519.7,366.3z M535.7,349c-3.8,0-4.2,3.2-4.2,6.6s0.4,6.7,4.2,6.7
		c3.8,0,4.2-3.3,4.2-6.7S539.5,349,535.7,349 M535.1,378.8c-3.9,0-6.6-0.8-9.3-3.3l4-4c1.4,1.4,2.9,2,5,2c3.8,0,5.2-2.7,5.2-5.3
		v-2.6c-1.7,1.9-3.6,2.6-6.1,2.6c-2.5,0-4.7-0.8-6.1-2.3c-2.4-2.4-2.6-5.7-2.6-10.2c0-4.5,0.2-7.7,2.6-10.1c1.4-1.4,3.6-2.3,6.2-2.3
		c2.7,0,4.5,0.7,6.3,2.7v-2.4h6.2v24.7C546.3,374.4,541.9,378.8,535.1,378.8 M551.1,369.2h6.4v-24.9h-6.4V369.2z M551,339.1h6.5
		v-5.2H551V339.1L551,339.1z M572.3,369.4c-5.1,0-11.5-2.8-11.5-13.1c0-10.4,6.3-13.1,11.5-13.1c3.5,0,6.2,1.1,8.5,3.4l-4.3,4.3
		c-1.3-1.4-2.5-2-4.1-2c-1.5,0-2.7,0.5-3.6,1.7c-1,1.2-1.4,3-1.4,5.7c0,2.7,0.4,4.5,1.4,5.7c0.9,1.1,2.1,1.7,3.6,1.7
		c1.7,0,2.8-0.6,4.1-2l4.3,4.3C578.5,368.3,575.9,369.4,572.3,369.4 M595.3,350.1c-0.7-0.7-1.7-1.1-3-1.1c-1.2,0-2.2,0.4-3,1.1
		c-1.3,1.3-1.5,3.6-1.5,6.2c0,2.7,0.1,5,1.5,6.3c0.7,0.7,1.7,1.1,3,1.1c1.3,0,2.3-0.4,3-1.1c1.3-1.3,1.5-3.6,1.5-6.3
		C596.8,353.7,596.6,351.4,595.3,350.1 M600.3,366.3c-1.6,1.7-4.2,3.2-8,3.2c-3.8,0-6.3-1.5-7.9-3.2c-2.3-2.5-2.9-5.4-2.9-10
		c0-4.6,0.6-7.5,2.9-9.9c1.6-1.7,4.1-3.2,7.9-3.2s6.3,1.4,8,3.2c2.3,2.5,2.9,5.3,2.9,9.9C603.2,360.9,602.6,363.9,600.3,366.3
		 M615.2,369.4c-4,0-7.6-0.4-10.9-3.7l4.2-4.2c2.1,2.1,4.9,2.4,6.8,2.4c2.2,0,4.5-0.7,4.5-2.7c0-1.3-0.6-2.2-2.7-2.4l-4.1-0.4
		c-4.5-0.4-7.4-2.5-7.4-7.2c0-5.4,4.7-8.2,9.9-8.2c4,0,7.3,0.7,9.8,3l-3.9,4c-1.5-1.3-3.7-1.7-6-1.7c-2.6,0-3.6,1.2-3.6,2.5
		s0.7,2,2.7,2.2l4,0.4c5.1,0.5,7.6,3.2,7.6,7.5C626.1,366.7,621.3,369.4,615.2,369.4"/>
</g>
</svg>
